<svg width="11" height="14" viewBox="0 0 11 14" fill="none" xmlns="http://www.w3.org/2000/svg">
<path d="M9.65893 5.79937C9.65893 9.69802 5.17444 13.0397 5.17444 13.0397C5.17444 13.0397 0.689941 9.69802 0.689941 5.79937C0.689941 4.46997 1.16241 3.19501 2.00342 2.25497C2.84443 1.31494 3.98508 0.786835 5.17444 0.786835C6.3638 0.786835 7.50445 1.31494 8.34545 2.25497C9.18646 3.19501 9.65893 4.46997 9.65893 5.79937Z" stroke="#010564" stroke-linecap="round" stroke-linejoin="round"/>
<path d="M5.17452 7.47023C6.00009 7.47023 6.66935 6.72217 6.66935 5.79939C6.66935 4.8766 6.00009 4.12854 5.17452 4.12854C4.34895 4.12854 3.67969 4.8766 3.67969 5.79939C3.67969 6.72217 4.34895 7.47023 5.17452 7.47023Z" stroke="#010564" stroke-linecap="round" stroke-linejoin="round"/>
</svg>
