<svg width="12" height="14" viewBox="0 0 12 14" fill="none" xmlns="http://www.w3.org/2000/svg">
<path d="M11.3485 9.66042V11.4018C11.3491 11.5634 11.3194 11.7234 11.2614 11.8716C11.2033 12.0197 11.1182 12.1526 11.0114 12.2619C10.9046 12.3712 10.7785 12.4544 10.6412 12.5062C10.504 12.558 10.3585 12.5772 10.2142 12.5627C8.61302 12.3686 7.07499 11.7583 5.72368 10.7807C4.46645 9.8895 3.40055 8.70045 2.60166 7.29797C1.72228 5.78369 1.17502 4.05962 1.00422 2.26544C0.99122 2.10493 1.00832 1.94315 1.05444 1.79042C1.10055 1.63768 1.17467 1.49732 1.27208 1.37829C1.36948 1.25926 1.48803 1.16416 1.62019 1.09904C1.75235 1.03392 1.89522 1.00021 2.03969 1.00006H3.6007C3.85323 0.997284 4.09804 1.09704 4.28951 1.28072C4.48097 1.46441 4.60603 1.7195 4.64138 1.99844C4.70726 2.55571 4.82945 3.10288 5.00561 3.62951C5.07562 3.83727 5.09077 4.06306 5.04927 4.28013C5.00777 4.4972 4.91136 4.69645 4.77146 4.85427L4.11063 5.59144C4.85136 7.04463 5.92997 8.24785 7.23265 9.07416L7.89348 8.33699C8.03495 8.18092 8.21357 8.07337 8.40816 8.02708C8.60274 7.98078 8.80515 7.99769 8.99139 8.07578C9.46348 8.27229 9.95398 8.4086 10.4535 8.4821C10.7063 8.52188 10.9371 8.6639 11.1022 8.88116C11.2672 9.09841 11.3548 9.37575 11.3485 9.66042Z" stroke="#010564" stroke-linecap="round" stroke-linejoin="round"/>
</svg>
